<?xml version="1.0" encoding="utf-8"?>
<!-- Generator: Adobe Illustrator 28.0.0, SVG Export Plug-In . SVG Version: 6.00 Build 0)  -->
<svg version="1.1" id="Ebene_1" xmlns="http://www.w3.org/2000/svg" xmlns:xlink="http://www.w3.org/1999/xlink" x="0px" y="0px"
	 viewBox="0 0 439.4 111.4" style="enable-background:new 0 0 439.4 111.4;" xml:space="preserve">
<style type="text/css">
	.st0{display:none;opacity:0.5;}
	.st1{display:inline;fill:#1D1E1C;}
	.st2{fill:#00FFAF;}
	.st3{fill:#FFFFFF;}
	.st4{fill:#353435;}
	.st5{fill:#ECEDEE;}
</style>
<g>
	<rect x="-2.8" y="-2.8" width="445.1" height="117"/>
</g>
<g>
	<g>
		<g>
			<g>
				<rect x="180.7" y="51.5" class="st3" width="31.8" height="8.4"/>
			</g>
			<g>
				<polygon class="st3" points="212.5,29.4 168.5,29.4 160.1,29.4 160.1,37.7 160.1,42.6 168.5,42.6 168.5,37.7 212.5,37.7 				"/>
			</g>
			<g>
				<polygon class="st3" points="168.5,73.6 168.5,68.7 160.1,68.7 160.1,73.6 160.1,81.9 160.1,82 212.5,82 212.5,73.6 				"/>
			</g>
			<g>
				<rect x="160.1" y="48.1" class="st3" width="15.1" height="15.1"/>
			</g>
		</g>
		<g>
			<path class="st3" d="M35.6,29.4L35.6,29.4v8.4v35.9V82h8.4h35.7H88v-8.4V37.8v-8.3v0H35.6z M79.6,73.6H43.9V37.8h35.7V73.6z"/>
		</g>
		<g>
			<polyline class="st3" points="142.1,82 150.3,82 150.3,29.4 141.9,29.4 141.9,69.3 106.2,29.4 106.2,29.4 97.9,29.4 97.9,82 
				106.3,82 106.3,41.9 141.9,82 141.9,82 142,82 			"/>
		</g>
	</g>
	<rect x="224.3" y="48.2" class="st2" width="15.1" height="15.1"/>
	<g>
		<path class="st3" d="M301.1,38.1l-11.8,35.1h-3.9l-10.3-29.9l-10.3,29.9h-3.9l-11.8-35.1h3.8L263,68.3l10.5-30.2h3.5l10.3,30.3
			l10.3-30.3H301.1z"/>
		<path class="st3" d="M328.8,63.9h-19.6l-4.2,9.4h-3.9l16-35.1h3.7l16,35.1H333L328.8,63.9z M327.5,60.8L319.1,42l-8.4,18.9H327.5z
			"/>
		<path class="st3" d="M366.7,73.2l-8-11.3c-0.9,0.1-1.8,0.2-2.8,0.2h-9.4v11.1h-3.7V38.1h13.1c8.9,0,14.3,4.5,14.3,12
			c0,5.5-2.9,9.4-8,11l8.6,12H366.7z M366.5,50.2c0-5.6-3.7-8.8-10.7-8.8h-9.3v17.6h9.3C362.8,58.9,366.5,55.7,366.5,50.2z"/>
		<path class="st3" d="M403.8,70v3.2H379V38.1h24.1v3.2h-20.4v12.5h18.1V57h-18.1v13H403.8z"/>
	</g>
</g>
</svg>
