<svg xmlns="http://www.w3.org/2000/svg" xmlns:xlink="http://www.w3.org/1999/xlink" xmlns:s="https://github.com/nturley/netlistsvg" width="614" height="265.5">
  <style>g {
    fill:none;
    stroke: #fff;
  }
  text {
    fill:#fff;
    stroke:none;
    font-size:10px;
    font-weight: bold;
    font-family: "Courier New", monospace;
  }
  line {
    stroke: #fff;
    stroke-linecap: round;
  }
  .nodelabel {
    text-anchor: middle;
  }
  .inputPortLabel {
    text-anchor: end;
  }
  .splitjoinBody {
    fill:#fff;
  } </style>
  <g s:type="add" transform="translate(158,192.5)" s:width="25" s:height="25" id="cell_$add$Blink.v:18$2">
    <s:alias val="$add"/>
    <circle r="12.5" cx="12.5" cy="12.5" fill="#ff8172" class="cell_$add$Blink.v:18$2"/>
    <line style="stroke: #000" x1="7.5" x2="17.5" y1="12.5" y2="12.5" class="cell_$add$Blink.v:18$2"/>
    <line style="stroke: #000" x1="12.5" x2="12.5" y1="7.5" y2="17.5" class="cell_$add$Blink.v:18$2"/>
    <g s:x="2" s:y="5" s:pid="A"/>
    <g s:x="2" s:y="20" s:pid="B"/>
    <g s:x="26" s:y="12.5" s:pid="Y"/>
  </g>
  <g s:type="generic" transform="translate(448,174.5)" s:width="30" s:height="40" id="cell_$auto$ff.cc:266:slice$12">
    <text x="15" y="-4" class="nodelabel cell_$auto$ff.cc:266:slice$12" s:attribute="ref">$sdff-bus</text>
    <rect width="30" height="60" s:generic="body" fill="#c782ff" rx="0" class="cell_$auto$ff.cc:266:slice$12"/>
    <g transform="translate(0,10)" s:x="0" s:y="10" s:pid="in0" id="port_$auto$ff.cc:266:slice$12~CLK">
      <text x="-3" y="-4" class="inputPortLabel cell_$auto$ff.cc:266:slice$12">CLK</text>
    </g>
    <g transform="translate(0,30)" s:x="0" s:y="10" s:pid="in0" id="port_$auto$ff.cc:266:slice$12~D">
      <text x="-3" y="-4" class="inputPortLabel cell_$auto$ff.cc:266:slice$12">D</text>
    </g>
    <g transform="translate(0,50)" s:x="0" s:y="10" s:pid="in0" id="port_$auto$ff.cc:266:slice$12~SRST">
      <text x="-3" y="-4" class="inputPortLabel cell_$auto$ff.cc:266:slice$12">SRST</text>
    </g>
    <g transform="translate(30,10)" s:x="30" s:y="10" s:pid="out0" id="port_$auto$ff.cc:266:slice$12~Q">
      <text x="5" y="-4" style="fill:#FFF; stroke:none" class="cell_$auto$ff.cc:266:slice$12">Q</text>
    </g>
  </g>
  <g s:type="generic" transform="translate(244,22)" s:width="30" s:height="40" id="cell_$auto$ff.cc:266:slice$13">
    <text x="15" y="-4" class="nodelabel cell_$auto$ff.cc:266:slice$13" s:attribute="ref">$dffe</text>
    <rect width="30" height="60" s:generic="body" fill="#c782ff" rx="0" class="cell_$auto$ff.cc:266:slice$13"/>
    <g transform="translate(0,10)" s:x="0" s:y="10" s:pid="in0" id="port_$auto$ff.cc:266:slice$13~CLK">
      <text x="-3" y="-4" class="inputPortLabel cell_$auto$ff.cc:266:slice$13">CLK</text>
    </g>
    <g transform="translate(0,30)" s:x="0" s:y="10" s:pid="in0" id="port_$auto$ff.cc:266:slice$13~D">
      <text x="-3" y="-4" class="inputPortLabel cell_$auto$ff.cc:266:slice$13">D</text>
    </g>
    <g transform="translate(0,50)" s:x="0" s:y="10" s:pid="in0" id="port_$auto$ff.cc:266:slice$13~EN">
      <text x="-3" y="-4" class="inputPortLabel cell_$auto$ff.cc:266:slice$13">EN</text>
    </g>
    <g transform="translate(30,10)" s:x="30" s:y="10" s:pid="out0" id="port_$auto$ff.cc:266:slice$13~Q">
      <text x="5" y="-4" style="fill:#FFF; stroke:none" class="cell_$auto$ff.cc:266:slice$13">Q</text>
    </g>
  </g>
  <g s:type="gt" transform="translate(158,131.5)" s:width="25" s:height="25" id="cell_$gt$Blink.v:19$3">
    <s:alias val="$gt"/>
    <circle r="12" cx="12" cy="12" fill="#24f8ff" class="cell_$gt$Blink.v:19$3"/>
    <line style="stroke: #000" x1="8" x2="19" y1="7" y2="12" class="cell_$gt$Blink.v:19$3"/>
    <line style="stroke: #000" x1="8" x2="19" y1="17" y2="12" class="cell_$gt$Blink.v:19$3"/>
    <g s:x="2" s:y="5" s:pid="A"/>
    <g s:x="2" s:y="20" s:pid="B"/>
    <g s:x="25" s:y="12.5" s:pid="Y"/>
  </g>
  <g s:type="not" transform="translate(448,77.5)" s:width="30" s:height="20" id="cell_$logic_not$Blink.v:20$4">
    <s:alias val="$_NOT_"/>
    <s:alias val="$not"/>
    <s:alias val="$logic_not"/>
    <path d="M0,0 L0,20 L20,10 Z" fill="#009688" class="cell_$logic_not$Blink.v:20$4"/>
    <circle cx="24" cy="10" r="3" fill="#009688" class="cell_$logic_not$Blink.v:20$4"/>
    <g s:x="-1" s:y="10" s:pid="A"/>
    <g s:x="27" s:y="10" s:pid="Y"/>
  </g>
  <g s:type="inputExt" transform="translate(155,22.5)" s:width="30" s:height="20" id="cell_clk">
    <text x="15" y="-4" class="nodelabel cell_clk" s:attribute="ref">clk</text>
    <s:alias val="$_inputExt_"/>
    <path d="M0,0 L0,20 L15,20 L30,10 L15,0 Z" fill="#3ba7ff" class="cell_clk"/>
    <g s:x="30" s:y="10" s:pid="Y"/>
  </g>
  <g s:type="outputExt" transform="translate(448,22.5)" s:width="30" s:height="20" id="cell_LED">
    <text x="15" y="-4" class="nodelabel cell_LED" s:attribute="ref">LED</text>
    <s:alias val="$_outputExt_"/>
    <path d="M30,0 L30,20 L15,20 L0,10 L15,0 Z" fill="#83ff6d" class="cell_LED"/>
    <g s:x="0" s:y="10" s:pid="A"/>
  </g>
  <g s:type="constant" transform="translate(89,202.5)" s:width="30" s:height="20" id="cell_1">
    <text x="15" y="-4" class="nodelabel cell_1" s:attribute="ref">1</text>
    <s:alias val="$_constant_"/>
    <rect width="30" height="20" fill="#24e634" class="cell_1"/>
    <g s:x="31" s:y="10" s:pid="Y"/>
  </g>
  <g s:type="constant" transform="translate(12,141.5)" s:width="30" s:height="20" id="cell_11110100001001000000">
    <text x="15" y="-4" class="nodelabel cell_11110100001001000000" s:attribute="ref">0xf4240</text>
    <s:alias val="$_constant_"/>
    <rect width="30" height="20" fill="#24e634" class="cell_11110100001001000000"/>
    <g s:x="31" s:y="10" s:pid="Y"/>
  </g>
  <line x1="479" x2="602" y1="185" y2="185" class="net_4,5,6,7,8,9,10,11,12,13,14,15,16,17,18,19,20,21,22,23,24,25,26,27,28,29,30,31,32,33,34,35 width_32" style="stroke-width: 2"/>
  <line x1="602" x2="602" y1="185" y2="247.5" class="net_4,5,6,7,8,9,10,11,12,13,14,15,16,17,18,19,20,21,22,23,24,25,26,27,28,29,30,31,32,33,34,35 width_32" style="stroke-width: 2"/>
  <line x1="602" x2="130" y1="247.5" y2="247.5" class="net_4,5,6,7,8,9,10,11,12,13,14,15,16,17,18,19,20,21,22,23,24,25,26,27,28,29,30,31,32,33,34,35 width_32" style="stroke-width: 2"/>
  <line x1="130" x2="130" y1="247.5" y2="197.5" class="net_4,5,6,7,8,9,10,11,12,13,14,15,16,17,18,19,20,21,22,23,24,25,26,27,28,29,30,31,32,33,34,35 width_32" style="stroke-width: 2"/>
  <line x1="130" x2="160" y1="197.5" y2="197.5" class="net_4,5,6,7,8,9,10,11,12,13,14,15,16,17,18,19,20,21,22,23,24,25,26,27,28,29,30,31,32,33,34,35 width_32" style="stroke-width: 2"/>
  <line x1="479" x2="602" y1="185" y2="185" class="net_4,5,6,7,8,9,10,11,12,13,14,15,16,17,18,19,20,21,22,23,24,25,26,27,28,29,30,31,32,33,34,35 width_32" style="stroke-width: 2"/>
  <line x1="602" x2="602" y1="185" y2="121.5" class="net_4,5,6,7,8,9,10,11,12,13,14,15,16,17,18,19,20,21,22,23,24,25,26,27,28,29,30,31,32,33,34,35 width_32" style="stroke-width: 2"/>
  <line x1="602" x2="130" y1="121.5" y2="121.5" class="net_4,5,6,7,8,9,10,11,12,13,14,15,16,17,18,19,20,21,22,23,24,25,26,27,28,29,30,31,32,33,34,35 width_32" style="stroke-width: 2"/>
  <line x1="130" x2="130" y1="121.5" y2="136.5" class="net_4,5,6,7,8,9,10,11,12,13,14,15,16,17,18,19,20,21,22,23,24,25,26,27,28,29,30,31,32,33,34,35 width_32" style="stroke-width: 2"/>
  <circle cx="602" cy="185" r="3" style="fill:#FFF" class="net_4,5,6,7,8,9,10,11,12,13,14,15,16,17,18,19,20,21,22,23,24,25,26,27,28,29,30,31,32,33,34,35 width_32"/>
  <line x1="130" x2="160" y1="136.5" y2="136.5" class="net_4,5,6,7,8,9,10,11,12,13,14,15,16,17,18,19,20,21,22,23,24,25,26,27,28,29,30,31,32,33,34,35 width_32" style="stroke-width: 2"/>
  <line x1="120" x2="160" y1="212.5" y2="212.5" class="net_70 width_1" style="stroke-width: 1"/>
  <line x1="185" x2="195" y1="32.5" y2="32.5" class="net_2 width_1" style="stroke-width: 1"/>
  <line x1="195" x2="195" y1="32.5" y2="137.5" class="net_2 width_1" style="stroke-width: 1"/>
  <line x1="195" x2="398" y1="137.5" y2="137.5" class="net_2 width_1" style="stroke-width: 1"/>
  <line x1="398" x2="398" y1="137.5" y2="185" class="net_2 width_1" style="stroke-width: 1"/>
  <circle cx="195" cy="32.5" r="2" style="fill:#FFF" class="net_2 width_1"/>
  <line x1="398" x2="448" y1="185" y2="185" class="net_2 width_1" style="stroke-width: 1"/>
  <line x1="185" x2="244" y1="32.5" y2="32.5" class="net_2 width_1" style="stroke-width: 1"/>
  <line x1="184" x2="448" y1="205" y2="205" class="net_36,37,38,39,40,41,42,43,44,45,46,47,48,49,50,51,52,53,54,55,56,57,58,59,60,61,62,63,64,65,66,67 width_32" style="stroke-width: 2"/>
  <line x1="183" x2="215" y1="144" y2="144" class="net_68 width_1" style="stroke-width: 1"/>
  <line x1="215" x2="215" y1="144" y2="221" class="net_68 width_1" style="stroke-width: 1"/>
  <line x1="215" x2="398" y1="221" y2="221" class="net_68 width_1" style="stroke-width: 1"/>
  <line x1="398" x2="398" y1="221" y2="225" class="net_68 width_1" style="stroke-width: 1"/>
  <circle cx="215" cy="144" r="2" style="fill:#FFF" class="net_68 width_1"/>
  <line x1="398" x2="448" y1="225" y2="225" class="net_68 width_1" style="stroke-width: 1"/>
  <line x1="183" x2="215" y1="144" y2="144" class="net_68 width_1" style="stroke-width: 1"/>
  <line x1="215" x2="215" y1="144" y2="72.5" class="net_68 width_1" style="stroke-width: 1"/>
  <line x1="215" x2="244" y1="72.5" y2="72.5" class="net_68 width_1" style="stroke-width: 1"/>
  <line x1="475" x2="602" y1="87.5" y2="87.5" class="net_69 width_1" style="stroke-width: 1"/>
  <line x1="602" x2="602" y1="87.5" y2="107.5" class="net_69 width_1" style="stroke-width: 1"/>
  <line x1="602" x2="205" y1="107.5" y2="107.5" class="net_69 width_1" style="stroke-width: 1"/>
  <line x1="205" x2="205" y1="107.5" y2="52.5" class="net_69 width_1" style="stroke-width: 1"/>
  <line x1="205" x2="244" y1="52.5" y2="52.5" class="net_69 width_1" style="stroke-width: 1"/>
  <line x1="43" x2="160" y1="151.5" y2="151.5" class="net_71,72,73,74,75,76,77,78,79,80,81,82,83,84,85,86,87,88,89,90 width_20" style="stroke-width: 2"/>
  <line x1="275" x2="398" y1="32.5" y2="32.5" class="net_3 width_1" style="stroke-width: 1"/>
  <line x1="398" x2="398" y1="32.5" y2="87.5" class="net_3 width_1" style="stroke-width: 1"/>
  <circle cx="398" cy="32.5" r="2" style="fill:#FFF" class="net_3 width_1"/>
  <line x1="398" x2="447" y1="87.5" y2="87.5" class="net_3 width_1" style="stroke-width: 1"/>
  <line x1="275" x2="448" y1="32.5" y2="32.5" class="net_3 width_1" style="stroke-width: 1"/>
  <rect x="305.5" y="116.5" width="22" height="9" class="net_4,5,6,7,8,9,10,11,12,13,14,15,16,17,18,19,20,21,22,23,24,25,26,27,28,29,30,31,32,33,34,35 width_32 busLabel_32" style="fill: #1E1E1E; stroke: none"/>
  <text x="304.5" y="124.5" class="net_4,5,6,7,8,9,10,11,12,13,14,15,16,17,18,19,20,21,22,23,24,25,26,27,28,29,30,31,32,33,34,35 width_32 busLabel_32">/32/</text>
  <rect x="305.5" y="116.5" width="22" height="9" class="net_4,5,6,7,8,9,10,11,12,13,14,15,16,17,18,19,20,21,22,23,24,25,26,27,28,29,30,31,32,33,34,35 width_32 busLabel_32" style="fill: #1E1E1E; stroke: none"/>
  <text x="304.5" y="124.5" class="net_4,5,6,7,8,9,10,11,12,13,14,15,16,17,18,19,20,21,22,23,24,25,26,27,28,29,30,31,32,33,34,35 width_32 busLabel_32">/32/</text>
  <rect x="305.5" y="200" width="22" height="9" class="net_36,37,38,39,40,41,42,43,44,45,46,47,48,49,50,51,52,53,54,55,56,57,58,59,60,61,62,63,64,65,66,67 width_32 busLabel_32" style="fill: #1E1E1E; stroke: none"/>
  <text x="304.5" y="208" class="net_36,37,38,39,40,41,42,43,44,45,46,47,48,49,50,51,52,53,54,55,56,57,58,59,60,61,62,63,64,65,66,67 width_32 busLabel_32">/32/</text>
  <rect x="103.5" y="146.5" width="22" height="9" class="net_71,72,73,74,75,76,77,78,79,80,81,82,83,84,85,86,87,88,89,90 width_20 busLabel_20" style="fill: #1E1E1E; stroke: none"/>
  <text x="102.5" y="154.5" class="net_71,72,73,74,75,76,77,78,79,80,81,82,83,84,85,86,87,88,89,90 width_20 busLabel_20">/20/</text>
</svg>
